<svg width="512" height="512" viewBox="0 0 512 512" fill="none" xmlns="http://www.w3.org/2000/svg">
  <rect width="512" height="512" rx="96" fill="#f3f0e7"/>
  <path d="M128 247C128 177.412 184.412 121 254 121H258C327.588 121 384 177.412 384 247C384 316.588 327.588 373 258 373H254C184.412 373 128 316.588 128 247Z" fill="#2f4b37"/>
  <path d="M177 250C177 205.817 212.817 170 257 170C301.183 170 337 205.817 337 250C337 294.183 301.183 330 257 330C212.817 330 177 294.183 177 250Z" fill="#fcfbf6"/>
  <path d="M214 251C214 227.252 233.252 208 257 208C280.748 208 300 227.252 300 251C300 274.748 280.748 294 257 294C233.252 294 214 274.748 214 251Z" fill="#9db98e"/>
  <path d="M256 121V70" stroke="#2f4b37" stroke-width="28" stroke-linecap="round"/>
  <path d="M256 442V373" stroke="#2f4b37" stroke-width="28" stroke-linecap="round"/>
</svg>
